<?xml version="1.0" encoding="UTF-8" standalone="no"?>
<!DOCTYPE svg PUBLIC "-//W3C//DTD SVG 1.1//EN"
 "http://www.w3.org/Graphics/SVG/1.1/DTD/svg11.dtd">
<!-- Generated by graphviz version 2.43.0 (0)
 -->
<!-- Title: %3 Pages: 1 -->
<svg width="2053pt" height="980pt"
 viewBox="0.00 0.00 2053.00 980.00" xmlns="http://www.w3.org/2000/svg" xmlns:xlink="http://www.w3.org/1999/xlink">
<g id="graph0" class="graph" transform="scale(1 1) rotate(0) translate(4 976)">
<title>%3</title>
<polygon fill="white" stroke="transparent" points="-4,4 -4,-976 2049,-976 2049,4 -4,4"/>
<!-- zq -->
<g id="node1" class="node">
<title>zq</title>
<polygon fill="none" stroke="black" points="1817,-972 1763,-972 1763,-936 1817,-936 1817,-972"/>
<text text-anchor="middle" x="1790" y="-950.3" font-family="Times,serif" font-size="14.00">zq</text>
</g>
<!-- ph -->
<g id="node9" class="node">
<title>ph</title>
<polygon fill="none" stroke="black" points="1158,-828 1104,-828 1104,-792 1158,-792 1158,-828"/>
<text text-anchor="middle" x="1131" y="-806.3" font-family="Times,serif" font-size="14.00">ph</text>
</g>
<!-- zq&#45;&gt;ph -->
<g id="edge1" class="edge">
<title>zq&#45;&gt;ph</title>
<path fill="none" stroke="black" d="M1762.88,-951.83C1670.11,-947.57 1366.03,-931.47 1274,-900 1230.87,-885.25 1187.25,-855.47 1159.72,-834.42"/>
<polygon fill="black" stroke="black" points="1161.76,-831.57 1151.71,-828.2 1157.46,-837.1 1161.76,-831.57"/>
</g>
<!-- fd -->
<g id="node11" class="node">
<title>fd</title>
<ellipse fill="none" stroke="black" cx="1876" cy="-594" rx="27" ry="18"/>
<text text-anchor="middle" x="1876" y="-590.3" font-family="Times,serif" font-size="14.00">fd</text>
</g>
<!-- zq&#45;&gt;fd -->
<g id="edge2" class="edge">
<title>zq&#45;&gt;fd</title>
<path fill="none" stroke="black" d="M1813.63,-935.97C1844.04,-911.89 1893,-864.75 1893,-811 1893,-811 1893,-811 1893,-737 1893,-696.71 1886.17,-650.44 1881.17,-621.96"/>
<polygon fill="black" stroke="black" points="1884.58,-621.19 1879.36,-611.97 1877.7,-622.43 1884.58,-621.19"/>
</g>
<!-- gk -->
<g id="node12" class="node">
<title>gk</title>
<ellipse fill="none" stroke="black" cx="1895" cy="-522" rx="27" ry="18"/>
<text text-anchor="middle" x="1895" y="-518.3" font-family="Times,serif" font-size="14.00">gk</text>
</g>
<!-- zq&#45;&gt;gk -->
<g id="edge3" class="edge">
<title>zq&#45;&gt;gk</title>
<path fill="none" stroke="black" d="M1817.19,-940.79C1858.16,-920.32 1931,-874.92 1931,-811 1931,-811 1931,-811 1931,-665 1931,-623.55 1916.41,-577.32 1905.8,-549.2"/>
<polygon fill="black" stroke="black" points="1909,-547.75 1902.11,-539.7 1902.47,-550.29 1909,-547.75"/>
</g>
<!-- pp -->
<g id="node13" class="node">
<title>pp</title>
<ellipse fill="none" stroke="black" cx="1867" cy="-306" rx="27" ry="18"/>
<text text-anchor="middle" x="1867" y="-302.3" font-family="Times,serif" font-size="14.00">pp</text>
</g>
<!-- zq&#45;&gt;pp -->
<g id="edge4" class="edge">
<title>zq&#45;&gt;pp</title>
<path fill="none" stroke="black" d="M1817.04,-948.43C1875.22,-936.88 2007,-900.82 2007,-811 2007,-811 2007,-811 2007,-449 2007,-387.33 1939.22,-342.73 1897.98,-321.31"/>
<polygon fill="black" stroke="black" points="1899.38,-318.09 1888.88,-316.72 1896.24,-324.35 1899.38,-318.09"/>
</g>
<!-- ss -->
<g id="node14" class="node">
<title>ss</title>
<ellipse fill="none" stroke="black" cx="1627" cy="-882" rx="27" ry="18"/>
<text text-anchor="middle" x="1627" y="-878.3" font-family="Times,serif" font-size="14.00">ss</text>
</g>
<!-- zq&#45;&gt;ss -->
<g id="edge5" class="edge">
<title>zq&#45;&gt;ss</title>
<path fill="none" stroke="black" d="M1762.86,-943.41C1733.47,-931.76 1687.04,-911.94 1656.71,-898.2"/>
<polygon fill="black" stroke="black" points="1658.02,-894.95 1647.47,-893.97 1655.1,-901.31 1658.02,-894.95"/>
</g>
<!-- dr -->
<g id="node15" class="node">
<title>dr</title>
<ellipse fill="none" stroke="black" cx="1838" cy="-666" rx="27" ry="18"/>
<text text-anchor="middle" x="1838" y="-662.3" font-family="Times,serif" font-size="14.00">dr</text>
</g>
<!-- zq&#45;&gt;dr -->
<g id="edge6" class="edge">
<title>zq&#45;&gt;dr</title>
<path fill="none" stroke="black" d="M1797.04,-935.56C1800.98,-925.33 1805.73,-912.08 1809,-900 1826.04,-837.15 1829.25,-820.76 1836,-756 1838.15,-735.38 1838.6,-711.93 1838.53,-694.28"/>
<polygon fill="black" stroke="black" points="1842.03,-694.08 1838.44,-684.11 1835.03,-694.15 1842.03,-694.08"/>
</g>
<!-- pl -->
<g id="node16" class="node">
<title>pl</title>
<ellipse fill="none" stroke="black" cx="1800" cy="-738" rx="27" ry="18"/>
<text text-anchor="middle" x="1800" y="-734.3" font-family="Times,serif" font-size="14.00">pl</text>
</g>
<!-- zq&#45;&gt;pl -->
<g id="edge7" class="edge">
<title>zq&#45;&gt;pl</title>
<path fill="none" stroke="black" d="M1791.34,-935.62C1793.15,-911.49 1796.34,-866.45 1798,-828 1798.9,-807.29 1799.4,-783.84 1799.68,-766.21"/>
<polygon fill="black" stroke="black" points="1803.18,-766.12 1799.83,-756.07 1796.18,-766.02 1803.18,-766.12"/>
</g>
<!-- qm -->
<g id="node2" class="node">
<title>qm</title>
<polygon fill="none" stroke="black" points="798,-828 744,-828 744,-792 798,-792 798,-828"/>
<text text-anchor="middle" x="771" y="-806.3" font-family="Times,serif" font-size="14.00">qm</text>
</g>
<!-- dd -->
<g id="node6" class="node">
<title>dd</title>
<polygon fill="none" stroke="black" points="872,-756 818,-756 818,-720 872,-720 872,-756"/>
<text text-anchor="middle" x="845" y="-734.3" font-family="Times,serif" font-size="14.00">dd</text>
</g>
<!-- qm&#45;&gt;dd -->
<g id="edge16" class="edge">
<title>qm&#45;&gt;dd</title>
<path fill="none" stroke="black" d="M789.29,-791.7C798.43,-783.05 809.64,-772.45 819.6,-763.03"/>
<polygon fill="black" stroke="black" points="822.06,-765.52 826.92,-756.1 817.25,-760.43 822.06,-765.52"/>
</g>
<!-- kb -->
<g id="node26" class="node">
<title>kb</title>
<ellipse fill="none" stroke="black" cx="817" cy="-882" rx="27" ry="18"/>
<text text-anchor="middle" x="817" y="-878.3" font-family="Times,serif" font-size="14.00">kb</text>
</g>
<!-- qm&#45;&gt;kb -->
<g id="edge17" class="edge">
<title>qm&#45;&gt;kb</title>
<path fill="none" stroke="black" d="M788.27,-828.28C794.42,-836.37 801.08,-846.19 806.55,-855.14"/>
<polygon fill="black" stroke="black" points="803.68,-857.18 811.74,-864.05 809.73,-853.65 803.68,-857.18"/>
</g>
<!-- jl -->
<g id="node27" class="node">
<title>jl</title>
<ellipse fill="none" stroke="black" cx="807" cy="-666" rx="27" ry="18"/>
<text text-anchor="middle" x="807" y="-662.3" font-family="Times,serif" font-size="14.00">jl</text>
</g>
<!-- qm&#45;&gt;jl -->
<g id="edge18" class="edge">
<title>qm&#45;&gt;jl</title>
<path fill="none" stroke="black" d="M775.34,-791.87C781.5,-767.56 792.85,-722.82 800.15,-694.01"/>
<polygon fill="black" stroke="black" points="803.58,-694.74 802.64,-684.19 796.79,-693.02 803.58,-694.74"/>
</g>
<!-- bs -->
<g id="node28" class="node">
<title>bs</title>
<ellipse fill="none" stroke="black" cx="843" cy="-306" rx="27" ry="18"/>
<text text-anchor="middle" x="843" y="-302.3" font-family="Times,serif" font-size="14.00">bs</text>
</g>
<!-- qm&#45;&gt;bs -->
<g id="edge19" class="edge">
<title>qm&#45;&gt;bs</title>
<path fill="none" stroke="black" d="M798.27,-809.25C838.26,-808.06 912.45,-799.63 953,-756 980.54,-726.37 972,-707.45 972,-667 972,-667 972,-667 972,-449 972,-390.51 911.29,-345.44 873.17,-322.91"/>
<polygon fill="black" stroke="black" points="874.43,-319.6 864.01,-317.67 870.95,-325.67 874.43,-319.6"/>
</g>
<!-- kx -->
<g id="node29" class="node">
<title>kx</title>
<ellipse fill="none" stroke="black" cx="917" cy="-738" rx="27" ry="18"/>
<text text-anchor="middle" x="917" y="-734.3" font-family="Times,serif" font-size="14.00">kx</text>
</g>
<!-- qm&#45;&gt;kx -->
<g id="edge20" class="edge">
<title>qm&#45;&gt;kx</title>
<path fill="none" stroke="black" d="M798.12,-796C823.24,-783.95 860.54,-766.07 886.65,-753.55"/>
<polygon fill="black" stroke="black" points="888.21,-756.69 895.71,-749.21 885.18,-750.37 888.21,-756.69"/>
</g>
<!-- bl -->
<g id="node30" class="node">
<title>bl</title>
<ellipse fill="none" stroke="black" cx="712" cy="-378" rx="27" ry="18"/>
<text text-anchor="middle" x="712" y="-374.3" font-family="Times,serif" font-size="14.00">bl</text>
</g>
<!-- qm&#45;&gt;bl -->
<g id="edge21" class="edge">
<title>qm&#45;&gt;bl</title>
<path fill="none" stroke="black" d="M743.76,-795.5C704.85,-774.06 638,-728.31 638,-667 638,-667 638,-667 638,-521 638,-474.59 669.47,-428.33 691.36,-401.75"/>
<polygon fill="black" stroke="black" points="694.27,-403.73 698.08,-393.84 688.94,-399.2 694.27,-403.73"/>
</g>
<!-- cz -->
<g id="node31" class="node">
<title>cz</title>
<ellipse fill="none" stroke="black" cx="769" cy="-594" rx="27" ry="18"/>
<text text-anchor="middle" x="769" y="-590.3" font-family="Times,serif" font-size="14.00">cz</text>
</g>
<!-- qm&#45;&gt;cz -->
<g id="edge22" class="edge">
<title>qm&#45;&gt;cz</title>
<path fill="none" stroke="black" d="M770.84,-791.85C770.49,-754.83 769.67,-667.18 769.26,-622.39"/>
<polygon fill="black" stroke="black" points="772.75,-622.2 769.16,-612.23 765.75,-622.26 772.75,-622.2"/>
</g>
<!-- dc -->
<g id="node3" class="node">
<title>dc</title>
<polygon fill="none" stroke="black" points="308,-972 254,-972 254,-936 308,-936 308,-972"/>
<text text-anchor="middle" x="281" y="-950.3" font-family="Times,serif" font-size="14.00">dc</text>
</g>
<!-- tx -->
<g id="node5" class="node">
<title>tx</title>
<polygon fill="none" stroke="black" points="1047,-900 993,-900 993,-864 1047,-864 1047,-900"/>
<text text-anchor="middle" x="1020" y="-878.3" font-family="Times,serif" font-size="14.00">tx</text>
</g>
<!-- dc&#45;&gt;tx -->
<g id="edge34" class="edge">
<title>dc&#45;&gt;tx</title>
<path fill="none" stroke="black" d="M308.1,-950.58C390.19,-943.22 643.31,-920.39 853,-900 897.49,-895.67 948.63,-890.43 982.47,-886.92"/>
<polygon fill="black" stroke="black" points="983.23,-890.36 992.82,-885.84 982.51,-883.4 983.23,-890.36"/>
</g>
<!-- vq -->
<g id="node38" class="node">
<title>vq</title>
<ellipse fill="none" stroke="black" cx="431" cy="-882" rx="27" ry="18"/>
<text text-anchor="middle" x="431" y="-878.3" font-family="Times,serif" font-size="14.00">vq</text>
</g>
<!-- dc&#45;&gt;vq -->
<g id="edge35" class="edge">
<title>dc&#45;&gt;vq</title>
<path fill="none" stroke="black" d="M308.22,-937.64C333.59,-925.09 371.26,-907.57 398.25,-895.78"/>
<polygon fill="black" stroke="black" points="399.88,-898.89 407.68,-891.72 397.11,-892.46 399.88,-898.89"/>
</g>
<!-- ct -->
<g id="node40" class="node">
<title>ct</title>
<ellipse fill="none" stroke="black" cx="207" cy="-738" rx="27" ry="18"/>
<text text-anchor="middle" x="207" y="-734.3" font-family="Times,serif" font-size="14.00">ct</text>
</g>
<!-- dc&#45;&gt;ct -->
<g id="edge36" class="edge">
<title>dc&#45;&gt;ct</title>
<path fill="none" stroke="black" d="M267.18,-935.66C249.78,-912.63 220.73,-869.97 209,-828 203.36,-807.81 203.13,-784.04 204.17,-766.14"/>
<polygon fill="black" stroke="black" points="207.66,-766.33 204.92,-756.1 200.68,-765.81 207.66,-766.33"/>
</g>
<!-- df -->
<g id="node41" class="node">
<title>df</title>
<ellipse fill="none" stroke="black" cx="150" cy="-522" rx="27" ry="18"/>
<text text-anchor="middle" x="150" y="-518.3" font-family="Times,serif" font-size="14.00">df</text>
</g>
<!-- dc&#45;&gt;df -->
<g id="edge37" class="edge">
<title>dc&#45;&gt;df</title>
<path fill="none" stroke="black" d="M284.84,-935.61C290.4,-908.94 300,-856.27 300,-811 300,-811 300,-811 300,-665 300,-600.52 226,-556.57 181.95,-536.11"/>
<polygon fill="black" stroke="black" points="183.34,-532.9 172.78,-531.99 180.47,-539.28 183.34,-532.9"/>
</g>
<!-- fx -->
<g id="node42" class="node">
<title>fx</title>
<ellipse fill="none" stroke="black" cx="169" cy="-666" rx="27" ry="18"/>
<text text-anchor="middle" x="169" y="-662.3" font-family="Times,serif" font-size="14.00">fx</text>
</g>
<!-- dc&#45;&gt;fx -->
<g id="edge38" class="edge">
<title>dc&#45;&gt;fx</title>
<path fill="none" stroke="black" d="M255.6,-935.85C243.38,-926.49 229.39,-913.97 220,-900 182.29,-843.89 182.79,-822.57 171,-756 167.39,-735.58 167.01,-712.12 167.47,-694.42"/>
<polygon fill="black" stroke="black" points="170.98,-694.34 167.85,-684.21 163.98,-694.08 170.98,-694.34"/>
</g>
<!-- ls -->
<g id="node4" class="node">
<title>ls</title>
<polygon fill="none" stroke="black" points="944,-612 890,-612 890,-576 944,-576 944,-612"/>
<text text-anchor="middle" x="917" y="-590.3" font-family="Times,serif" font-size="14.00">ls</text>
</g>
<!-- rx -->
<g id="node10" class="node">
<title>rx</title>
<polygon fill="none" stroke="black" points="915,-540 885.67,-522 915,-504 944.33,-522 915,-540"/>
<text text-anchor="middle" x="915" y="-518.3" font-family="Times,serif" font-size="14.00">rx</text>
</g>
<!-- ls&#45;&gt;rx -->
<g id="edge50" class="edge">
<title>ls&#45;&gt;rx</title>
<path fill="none" stroke="black" d="M916.51,-575.7C916.29,-567.98 916.02,-558.71 915.77,-550.11"/>
<polygon fill="black" stroke="black" points="919.27,-550 915.49,-540.1 912.28,-550.2 919.27,-550"/>
</g>
<!-- tx&#45;&gt;ls -->
<g id="edge51" class="edge">
<title>tx&#45;&gt;ls</title>
<path fill="none" stroke="black" d="M1013.87,-863.97C996.62,-816.09 947.63,-680.06 926.69,-621.9"/>
<polygon fill="black" stroke="black" points="929.91,-620.53 923.23,-612.31 923.33,-622.9 929.91,-620.53"/>
</g>
<!-- dd&#45;&gt;ls -->
<g id="edge54" class="edge">
<title>dd&#45;&gt;ls</title>
<path fill="none" stroke="black" d="M853.68,-719.87C866.12,-695.35 889.1,-650.03 903.69,-621.26"/>
<polygon fill="black" stroke="black" points="906.88,-622.69 908.28,-612.19 900.64,-619.53 906.88,-622.69"/>
</g>
<!-- nz -->
<g id="node7" class="node">
<title>nz</title>
<polygon fill="none" stroke="black" points="1130,-684 1076,-684 1076,-648 1130,-648 1130,-684"/>
<text text-anchor="middle" x="1103" y="-662.3" font-family="Times,serif" font-size="14.00">nz</text>
</g>
<!-- nz&#45;&gt;ls -->
<g id="edge63" class="edge">
<title>nz&#45;&gt;ls</title>
<path fill="none" stroke="black" d="M1075.72,-653.5C1071.15,-651.63 1066.45,-649.74 1062,-648 1025.32,-633.7 982.99,-618.36 953.57,-607.88"/>
<polygon fill="black" stroke="black" points="954.72,-604.57 944.12,-604.52 952.37,-611.17 954.72,-604.57"/>
</g>
<!-- jh -->
<g id="node8" class="node">
<title>jh</title>
<polygon fill="none" stroke="black" points="1337,-756 1283,-756 1283,-720 1337,-720 1337,-756"/>
<text text-anchor="middle" x="1310" y="-734.3" font-family="Times,serif" font-size="14.00">jh</text>
</g>
<!-- jh&#45;&gt;nz -->
<g id="edge81" class="edge">
<title>jh&#45;&gt;nz</title>
<path fill="none" stroke="black" d="M1282.74,-729.06C1249.65,-719.25 1192.29,-701.69 1144,-684 1142.6,-683.49 1141.17,-682.95 1139.74,-682.41"/>
<polygon fill="black" stroke="black" points="1140.81,-679.07 1130.22,-678.66 1138.24,-685.58 1140.81,-679.07"/>
</g>
<!-- qg -->
<g id="node17" class="node">
<title>qg</title>
<ellipse fill="none" stroke="black" cx="1310" cy="-882" rx="27" ry="18"/>
<text text-anchor="middle" x="1310" y="-878.3" font-family="Times,serif" font-size="14.00">qg</text>
</g>
<!-- jh&#45;&gt;qg -->
<g id="edge82" class="edge">
<title>jh&#45;&gt;qg</title>
<path fill="none" stroke="black" d="M1314.6,-756.27C1317.16,-780.61 1317.43,-825.24 1315.43,-853.99"/>
<polygon fill="black" stroke="black" points="1311.93,-853.89 1314.55,-864.15 1318.9,-854.49 1311.93,-853.89"/>
</g>
<!-- fk -->
<g id="node21" class="node">
<title>fk</title>
<ellipse fill="none" stroke="black" cx="1327" cy="-522" rx="27" ry="18"/>
<text text-anchor="middle" x="1327" y="-518.3" font-family="Times,serif" font-size="14.00">fk</text>
</g>
<!-- jh&#45;&gt;fk -->
<g id="edge83" class="edge">
<title>jh&#45;&gt;fk</title>
<path fill="none" stroke="black" d="M1311.36,-719.85C1314.3,-682.83 1321.27,-595.18 1324.82,-550.39"/>
<polygon fill="black" stroke="black" points="1328.33,-550.48 1325.63,-540.23 1321.35,-549.92 1328.33,-550.48"/>
</g>
<!-- lr -->
<g id="node22" class="node">
<title>lr</title>
<ellipse fill="none" stroke="black" cx="1313" cy="-450" rx="27" ry="18"/>
<text text-anchor="middle" x="1313" y="-446.3" font-family="Times,serif" font-size="14.00">lr</text>
</g>
<!-- jh&#45;&gt;lr -->
<g id="edge84" class="edge">
<title>jh&#45;&gt;lr</title>
<path fill="none" stroke="black" d="M1305.39,-719.86C1295.66,-681.04 1275.13,-583.61 1291,-504 1292.87,-494.63 1296.42,-484.84 1300.14,-476.26"/>
<polygon fill="black" stroke="black" points="1303.32,-477.73 1304.32,-467.18 1296.96,-474.8 1303.32,-477.73"/>
</g>
<!-- zz -->
<g id="node48" class="node">
<title>zz</title>
<ellipse fill="none" stroke="black" cx="1285" cy="-306" rx="27" ry="18"/>
<text text-anchor="middle" x="1285" y="-302.3" font-family="Times,serif" font-size="14.00">zz</text>
</g>
<!-- jh&#45;&gt;zz -->
<g id="edge85" class="edge">
<title>jh&#45;&gt;zz</title>
<path fill="none" stroke="black" d="M1293.51,-719.77C1271.16,-694.53 1234,-645.05 1234,-595 1234,-595 1234,-595 1234,-449 1234,-405.89 1255.08,-359.51 1270.14,-331.89"/>
<polygon fill="black" stroke="black" points="1273.32,-333.37 1275.17,-322.94 1267.22,-329.95 1273.32,-333.37"/>
</g>
<!-- fc -->
<g id="node49" class="node">
<title>fc</title>
<ellipse fill="none" stroke="black" cx="1365" cy="-594" rx="27" ry="18"/>
<text text-anchor="middle" x="1365" y="-590.3" font-family="Times,serif" font-size="14.00">fc</text>
</g>
<!-- jh&#45;&gt;fc -->
<g id="edge86" class="edge">
<title>jh&#45;&gt;fc</title>
<path fill="none" stroke="black" d="M1316.63,-719.87C1326.14,-695.33 1343.72,-649.94 1354.86,-621.17"/>
<polygon fill="black" stroke="black" points="1358.16,-622.34 1358.51,-611.75 1351.64,-619.81 1358.16,-622.34"/>
</g>
<!-- vl -->
<g id="node50" class="node">
<title>vl</title>
<ellipse fill="none" stroke="black" cx="1479" cy="-666" rx="27" ry="18"/>
<text text-anchor="middle" x="1479" y="-662.3" font-family="Times,serif" font-size="14.00">vl</text>
</g>
<!-- jh&#45;&gt;vl -->
<g id="edge87" class="edge">
<title>jh&#45;&gt;vl</title>
<path fill="none" stroke="black" d="M1337.47,-725.63C1363.39,-714.9 1403.34,-698.36 1438,-684 1440.9,-682.8 1443.91,-681.55 1446.92,-680.3"/>
<polygon fill="black" stroke="black" points="1448.55,-683.42 1456.44,-676.35 1445.87,-676.95 1448.55,-683.42"/>
</g>
<!-- ph&#45;&gt;ls -->
<g id="edge93" class="edge">
<title>ph&#45;&gt;ls</title>
<path fill="none" stroke="black" d="M1119.22,-791.79C1106.18,-773.24 1084.08,-743.25 1062,-720 1025.5,-681.55 978.19,-642.49 947.72,-618.5"/>
<polygon fill="black" stroke="black" points="949.62,-615.55 939.59,-612.15 945.31,-621.07 949.62,-615.55"/>
</g>
<!-- fd&#45;&gt;gk -->
<g id="edge33" class="edge">
<title>fd&#45;&gt;gk</title>
<path fill="none" stroke="black" d="M1880.6,-576.05C1882.75,-568.14 1885.35,-558.54 1887.76,-549.69"/>
<polygon fill="black" stroke="black" points="1891.2,-550.36 1890.44,-539.79 1884.45,-548.52 1891.2,-550.36"/>
</g>
<!-- rt -->
<g id="node54" class="node">
<title>rt</title>
<ellipse fill="none" stroke="black" cx="1895" cy="-450" rx="27" ry="18"/>
<text text-anchor="middle" x="1895" y="-446.3" font-family="Times,serif" font-size="14.00">rt</text>
</g>
<!-- gk&#45;&gt;rt -->
<g id="edge100" class="edge">
<title>gk&#45;&gt;rt</title>
<path fill="none" stroke="black" d="M1895,-503.7C1895,-495.98 1895,-486.71 1895,-478.11"/>
<polygon fill="black" stroke="black" points="1898.5,-478.1 1895,-468.1 1891.5,-478.1 1898.5,-478.1"/>
</g>
<!-- hh -->
<g id="node23" class="node">
<title>hh</title>
<ellipse fill="none" stroke="black" cx="1791" cy="-234" rx="27" ry="18"/>
<text text-anchor="middle" x="1791" y="-230.3" font-family="Times,serif" font-size="14.00">hh</text>
</g>
<!-- pp&#45;&gt;hh -->
<g id="edge13" class="edge">
<title>pp&#45;&gt;hh</title>
<path fill="none" stroke="black" d="M1851.62,-290.83C1840.8,-280.87 1826.14,-267.37 1813.95,-256.14"/>
<polygon fill="black" stroke="black" points="1816.08,-253.34 1806.36,-249.14 1811.34,-258.49 1816.08,-253.34"/>
</g>
<!-- ss&#45;&gt;zq -->
<g id="edge28" class="edge">
<title>ss&#45;&gt;zq</title>
<path fill="none" stroke="black" d="M1650.32,-891.08C1677.38,-901.69 1721.99,-920.63 1753.58,-934.78"/>
<polygon fill="black" stroke="black" points="1752.38,-938.08 1762.93,-939 1755.26,-931.7 1752.38,-938.08"/>
</g>
<!-- nd -->
<g id="node37" class="node">
<title>nd</title>
<ellipse fill="none" stroke="black" cx="1762" cy="-810" rx="27" ry="18"/>
<text text-anchor="middle" x="1762" y="-806.3" font-family="Times,serif" font-size="14.00">nd</text>
</g>
<!-- ss&#45;&gt;nd -->
<g id="edge29" class="edge">
<title>ss&#45;&gt;nd</title>
<path fill="none" stroke="black" d="M1647.8,-870.22C1670.46,-858.47 1706.89,-839.57 1732.5,-826.3"/>
<polygon fill="black" stroke="black" points="1734.13,-829.39 1741.4,-821.68 1730.91,-823.18 1734.13,-829.39"/>
</g>
<!-- dr&#45;&gt;fd -->
<g id="edge53" class="edge">
<title>dr&#45;&gt;fd</title>
<path fill="none" stroke="black" d="M1846.81,-648.76C1851.42,-640.28 1857.16,-629.71 1862.32,-620.2"/>
<polygon fill="black" stroke="black" points="1865.54,-621.61 1867.23,-611.15 1859.39,-618.27 1865.54,-621.61"/>
</g>
<!-- pl&#45;&gt;dr -->
<g id="edge70" class="edge">
<title>pl&#45;&gt;dr</title>
<path fill="none" stroke="black" d="M1808.81,-720.76C1813.42,-712.28 1819.16,-701.71 1824.32,-692.2"/>
<polygon fill="black" stroke="black" points="1827.54,-693.61 1829.23,-683.15 1821.39,-690.27 1827.54,-693.61"/>
</g>
<!-- qg&#45;&gt;jh -->
<g id="edge8" class="edge">
<title>qg&#45;&gt;jh</title>
<path fill="none" stroke="black" d="M1305.45,-864.15C1302.86,-840.05 1302.56,-795.45 1304.53,-766.51"/>
<polygon fill="black" stroke="black" points="1308.04,-766.53 1305.4,-756.27 1301.07,-765.94 1308.04,-766.53"/>
</g>
<!-- nk -->
<g id="node18" class="node">
<title>nk</title>
<ellipse fill="none" stroke="black" cx="1374" cy="-810" rx="27" ry="18"/>
<text text-anchor="middle" x="1374" y="-806.3" font-family="Times,serif" font-size="14.00">nk</text>
</g>
<!-- qg&#45;&gt;nk -->
<g id="edge9" class="edge">
<title>qg&#45;&gt;nk</title>
<path fill="none" stroke="black" d="M1323.57,-866.15C1332.31,-856.6 1343.83,-843.99 1353.66,-833.25"/>
<polygon fill="black" stroke="black" points="1356.28,-835.57 1360.45,-825.82 1351.12,-830.84 1356.28,-835.57"/>
</g>
<!-- nk&#45;&gt;jh -->
<g id="edge59" class="edge">
<title>nk&#45;&gt;jh</title>
<path fill="none" stroke="black" d="M1360.43,-794.15C1352.3,-785.26 1341.76,-773.74 1332.43,-763.53"/>
<polygon fill="black" stroke="black" points="1334.91,-761.06 1325.58,-756.04 1329.74,-765.78 1334.91,-761.06"/>
</g>
<!-- nk&#45;&gt;vl -->
<g id="edge60" class="edge">
<title>nk&#45;&gt;vl</title>
<path fill="none" stroke="black" d="M1385.44,-793.53C1403.74,-768.78 1439.75,-720.08 1461.37,-690.85"/>
<polygon fill="black" stroke="black" points="1464.45,-692.57 1467.58,-682.45 1458.82,-688.41 1464.45,-692.57"/>
</g>
<!-- lm -->
<g id="node19" class="node">
<title>lm</title>
<ellipse fill="none" stroke="black" cx="617" cy="-162" rx="27" ry="18"/>
<text text-anchor="middle" x="617" y="-158.3" font-family="Times,serif" font-size="14.00">lm</text>
</g>
<!-- lm&#45;&gt;qm -->
<g id="edge10" class="edge">
<title>lm&#45;&gt;qm</title>
<path fill="none" stroke="black" d="M613.64,-179.97C608.69,-206.52 600,-259.56 600,-305 600,-667 600,-667 600,-667 600,-713.04 618.63,-725.37 653,-756 676.24,-776.71 708.9,-790.53 733.97,-798.85"/>
<polygon fill="black" stroke="black" points="732.93,-802.19 743.52,-801.88 735.04,-795.52 732.93,-802.19"/>
</g>
<!-- lg -->
<g id="node20" class="node">
<title>lg</title>
<ellipse fill="none" stroke="black" cx="579" cy="-90" rx="27" ry="18"/>
<text text-anchor="middle" x="579" y="-86.3" font-family="Times,serif" font-size="14.00">lg</text>
</g>
<!-- lm&#45;&gt;lg -->
<g id="edge11" class="edge">
<title>lm&#45;&gt;lg</title>
<path fill="none" stroke="black" d="M608.19,-144.76C603.58,-136.28 597.84,-125.71 592.68,-116.2"/>
<polygon fill="black" stroke="black" points="595.61,-114.27 587.77,-107.15 589.46,-117.61 595.61,-114.27"/>
</g>
<!-- lg&#45;&gt;qm -->
<g id="edge67" class="edge">
<title>lg&#45;&gt;qm</title>
<path fill="none" stroke="black" d="M575.64,-107.97C570.69,-134.52 562,-187.56 562,-233 562,-667 562,-667 562,-667 562,-712.15 576.28,-727.13 611,-756 646.27,-785.33 698.35,-798.62 733.42,-804.51"/>
<polygon fill="black" stroke="black" points="733.31,-808.03 743.72,-806.11 734.38,-801.11 733.31,-808.03"/>
</g>
<!-- ms -->
<g id="node53" class="node">
<title>ms</title>
<ellipse fill="none" stroke="black" cx="552" cy="-18" rx="27" ry="18"/>
<text text-anchor="middle" x="552" y="-14.3" font-family="Times,serif" font-size="14.00">ms</text>
</g>
<!-- lg&#45;&gt;ms -->
<g id="edge68" class="edge">
<title>lg&#45;&gt;ms</title>
<path fill="none" stroke="black" d="M572.6,-72.41C569.49,-64.34 565.67,-54.43 562.17,-45.35"/>
<polygon fill="black" stroke="black" points="565.4,-44.03 558.54,-35.96 558.87,-46.55 565.4,-44.03"/>
</g>
<!-- fk&#45;&gt;lr -->
<g id="edge12" class="edge">
<title>fk&#45;&gt;lr</title>
<path fill="none" stroke="black" d="M1323.61,-504.05C1322.07,-496.35 1320.21,-487.03 1318.47,-478.36"/>
<polygon fill="black" stroke="black" points="1321.85,-477.39 1316.46,-468.28 1314.98,-478.77 1321.85,-477.39"/>
</g>
<!-- dg -->
<g id="node47" class="node">
<title>dg</title>
<ellipse fill="none" stroke="black" cx="1313" cy="-378" rx="27" ry="18"/>
<text text-anchor="middle" x="1313" y="-374.3" font-family="Times,serif" font-size="14.00">dg</text>
</g>
<!-- lr&#45;&gt;dg -->
<g id="edge69" class="edge">
<title>lr&#45;&gt;dg</title>
<path fill="none" stroke="black" d="M1313,-431.7C1313,-423.98 1313,-414.71 1313,-406.11"/>
<polygon fill="black" stroke="black" points="1316.5,-406.1 1313,-396.1 1309.5,-406.1 1316.5,-406.1"/>
</g>
<!-- hh&#45;&gt;zq -->
<g id="edge78" class="edge">
<title>hh&#45;&gt;zq</title>
<path fill="none" stroke="black" d="M1770.85,-246.13C1736.2,-266.94 1669,-315.25 1669,-377 1669,-739 1669,-739 1669,-739 1669,-816.33 1691.56,-836.02 1735,-900 1742.16,-910.54 1751.69,-920.64 1760.81,-929.14"/>
<polygon fill="black" stroke="black" points="1758.53,-931.79 1768.31,-935.87 1763.21,-926.59 1758.53,-931.79"/>
</g>
<!-- fv -->
<g id="node44" class="node">
<title>fv</title>
<ellipse fill="none" stroke="black" cx="1791" cy="-162" rx="27" ry="18"/>
<text text-anchor="middle" x="1791" y="-158.3" font-family="Times,serif" font-size="14.00">fv</text>
</g>
<!-- hh&#45;&gt;fv -->
<g id="edge79" class="edge">
<title>hh&#45;&gt;fv</title>
<path fill="none" stroke="black" d="M1791,-215.7C1791,-207.98 1791,-198.71 1791,-190.11"/>
<polygon fill="black" stroke="black" points="1794.5,-190.1 1791,-180.1 1787.5,-190.1 1794.5,-190.1"/>
</g>
<!-- bf -->
<g id="node24" class="node">
<title>bf</title>
<ellipse fill="none" stroke="black" cx="731" cy="-522" rx="27" ry="18"/>
<text text-anchor="middle" x="731" y="-518.3" font-family="Times,serif" font-size="14.00">bf</text>
</g>
<!-- bf&#45;&gt;qm -->
<g id="edge14" class="edge">
<title>bf&#45;&gt;qm</title>
<path fill="none" stroke="black" d="M730.53,-540.12C730.24,-558.08 730.34,-587.1 733,-612 739.57,-673.42 755.27,-744.27 764.3,-782.02"/>
<polygon fill="black" stroke="black" points="760.9,-782.86 766.66,-791.76 767.71,-781.21 760.9,-782.86"/>
</g>
<!-- sj -->
<g id="node25" class="node">
<title>sj</title>
<ellipse fill="none" stroke="black" cx="712" cy="-450" rx="27" ry="18"/>
<text text-anchor="middle" x="712" y="-446.3" font-family="Times,serif" font-size="14.00">sj</text>
</g>
<!-- bf&#45;&gt;sj -->
<g id="edge15" class="edge">
<title>bf&#45;&gt;sj</title>
<path fill="none" stroke="black" d="M726.4,-504.05C724.25,-496.14 721.65,-486.54 719.24,-477.69"/>
<polygon fill="black" stroke="black" points="722.55,-476.52 716.56,-467.79 715.8,-478.36 722.55,-476.52"/>
</g>
<!-- sj&#45;&gt;qm -->
<g id="edge56" class="edge">
<title>sj&#45;&gt;qm</title>
<path fill="none" stroke="black" d="M704.89,-467.7C694.4,-493.89 676,-546.46 676,-593 676,-667 676,-667 676,-667 676,-714.99 713.94,-759.04 741.87,-784.96"/>
<polygon fill="black" stroke="black" points="739.67,-787.69 749.44,-791.78 744.35,-782.48 739.67,-787.69"/>
</g>
<!-- sj&#45;&gt;bl -->
<g id="edge57" class="edge">
<title>sj&#45;&gt;bl</title>
<path fill="none" stroke="black" d="M712,-431.7C712,-423.98 712,-414.71 712,-406.11"/>
<polygon fill="black" stroke="black" points="715.5,-406.1 712,-396.1 708.5,-406.1 715.5,-406.1"/>
</g>
<!-- kb&#45;&gt;qm -->
<g id="edge91" class="edge">
<title>kb&#45;&gt;qm</title>
<path fill="none" stroke="black" d="M802.14,-866.83C795.38,-858.27 787.7,-847.09 781.53,-836.98"/>
<polygon fill="black" stroke="black" points="784.41,-834.98 776.35,-828.11 778.37,-838.51 784.41,-834.98"/>
</g>
<!-- kb&#45;&gt;kx -->
<g id="edge92" class="edge">
<title>kb&#45;&gt;kx</title>
<path fill="none" stroke="black" d="M828.08,-865.26C845.5,-840.52 879.42,-792.37 899.96,-763.2"/>
<polygon fill="black" stroke="black" points="902.97,-765 905.87,-754.81 897.25,-760.97 902.97,-765"/>
</g>
<!-- jl&#45;&gt;cz -->
<g id="edge77" class="edge">
<title>jl&#45;&gt;cz</title>
<path fill="none" stroke="black" d="M798.19,-648.76C793.58,-640.28 787.84,-629.71 782.68,-620.2"/>
<polygon fill="black" stroke="black" points="785.61,-618.27 777.77,-611.15 779.46,-621.61 785.61,-618.27"/>
</g>
<!-- pv -->
<g id="node46" class="node">
<title>pv</title>
<ellipse fill="none" stroke="black" cx="843" cy="-234" rx="27" ry="18"/>
<text text-anchor="middle" x="843" y="-230.3" font-family="Times,serif" font-size="14.00">pv</text>
</g>
<!-- bs&#45;&gt;pv -->
<g id="edge103" class="edge">
<title>bs&#45;&gt;pv</title>
<path fill="none" stroke="black" d="M843,-287.7C843,-279.98 843,-270.71 843,-262.11"/>
<polygon fill="black" stroke="black" points="846.5,-262.1 843,-252.1 839.5,-262.1 846.5,-262.1"/>
</g>
<!-- kx&#45;&gt;jl -->
<g id="edge55" class="edge">
<title>kx&#45;&gt;jl</title>
<path fill="none" stroke="black" d="M897.84,-724.81C880.33,-713.67 854.24,-697.06 834.51,-684.5"/>
<polygon fill="black" stroke="black" points="836.26,-681.47 825.94,-679.05 832.5,-687.37 836.26,-681.47"/>
</g>
<!-- bl&#45;&gt;bs -->
<g id="edge32" class="edge">
<title>bl&#45;&gt;bs</title>
<path fill="none" stroke="black" d="M732.47,-366.06C754.29,-354.4 789.04,-335.83 813.75,-322.63"/>
<polygon fill="black" stroke="black" points="815.5,-325.66 822.67,-317.86 812.21,-319.49 815.5,-325.66"/>
</g>
<!-- cz&#45;&gt;bf -->
<g id="edge64" class="edge">
<title>cz&#45;&gt;bf</title>
<path fill="none" stroke="black" d="M760.19,-576.76C755.58,-568.28 749.84,-557.71 744.68,-548.2"/>
<polygon fill="black" stroke="black" points="747.61,-546.27 739.77,-539.15 741.46,-549.61 747.61,-546.27"/>
</g>
<!-- db -->
<g id="node32" class="node">
<title>db</title>
<ellipse fill="none" stroke="black" cx="376" cy="-162" rx="27" ry="18"/>
<text text-anchor="middle" x="376" y="-158.3" font-family="Times,serif" font-size="14.00">db</text>
</g>
<!-- db&#45;&gt;dc -->
<g id="edge23" class="edge">
<title>db&#45;&gt;dc</title>
<path fill="none" stroke="black" d="M376,-180.05C376,-206.71 376,-259.89 376,-305 376,-811 376,-811 376,-811 376,-858.99 338.06,-903.04 310.13,-928.96"/>
<polygon fill="black" stroke="black" points="307.65,-926.48 302.56,-935.78 312.33,-931.69 307.65,-926.48"/>
</g>
<!-- jn -->
<g id="node33" class="node">
<title>jn</title>
<ellipse fill="none" stroke="black" cx="422" cy="-90" rx="27" ry="18"/>
<text text-anchor="middle" x="422" y="-86.3" font-family="Times,serif" font-size="14.00">jn</text>
</g>
<!-- db&#45;&gt;jn -->
<g id="edge24" class="edge">
<title>db&#45;&gt;jn</title>
<path fill="none" stroke="black" d="M386.44,-145.12C392.2,-136.34 399.48,-125.26 405.96,-115.42"/>
<polygon fill="black" stroke="black" points="409.04,-117.1 411.6,-106.82 403.19,-113.26 409.04,-117.1"/>
</g>
<!-- jn&#45;&gt;dc -->
<g id="edge73" class="edge">
<title>jn&#45;&gt;dc</title>
<path fill="none" stroke="black" d="M434.04,-106.17C452.58,-131.09 486,-182.97 486,-233 486,-811 486,-811 486,-811 486,-851.45 494.62,-870.45 467,-900 428.53,-941.15 360.59,-951.13 318.33,-953.12"/>
<polygon fill="black" stroke="black" points="318.05,-949.62 308.18,-953.46 318.29,-956.62 318.05,-949.62"/>
</g>
<!-- kl -->
<g id="node34" class="node">
<title>kl</title>
<ellipse fill="none" stroke="black" cx="207" cy="-306" rx="27" ry="18"/>
<text text-anchor="middle" x="207" y="-302.3" font-family="Times,serif" font-size="14.00">kl</text>
</g>
<!-- kl&#45;&gt;dc -->
<g id="edge25" class="edge">
<title>kl&#45;&gt;dc</title>
<path fill="none" stroke="black" d="M228.05,-317.42C265.08,-337.42 338,-384.94 338,-449 338,-811 338,-811 338,-811 338,-854.2 315,-899.81 298.22,-927.34"/>
<polygon fill="black" stroke="black" points="295.17,-925.63 292.81,-935.96 301.09,-929.35 295.17,-925.63"/>
</g>
<!-- qv -->
<g id="node35" class="node">
<title>qv</title>
<ellipse fill="none" stroke="black" cx="207" cy="-234" rx="27" ry="18"/>
<text text-anchor="middle" x="207" y="-230.3" font-family="Times,serif" font-size="14.00">qv</text>
</g>
<!-- kl&#45;&gt;qv -->
<g id="edge26" class="edge">
<title>kl&#45;&gt;qv</title>
<path fill="none" stroke="black" d="M207,-287.7C207,-279.98 207,-270.71 207,-262.11"/>
<polygon fill="black" stroke="black" points="210.5,-262.1 207,-252.1 203.5,-262.1 210.5,-262.1"/>
</g>
<!-- qv&#45;&gt;dc -->
<g id="edge48" class="edge">
<title>qv&#45;&gt;dc</title>
<path fill="none" stroke="black" d="M181.2,-239.99C125.71,-252.39 0,-290.06 0,-377 0,-811 0,-811 0,-811 0,-856.15 12.95,-872.82 49,-900 106.78,-943.57 194.09,-952.33 243.48,-953.52"/>
<polygon fill="black" stroke="black" points="243.67,-957.02 253.72,-953.67 243.77,-950.02 243.67,-957.02"/>
</g>
<!-- qv&#45;&gt;db -->
<g id="edge49" class="edge">
<title>qv&#45;&gt;db</title>
<path fill="none" stroke="black" d="M229.44,-223.7C258.94,-211.49 310.94,-189.95 344.4,-176.09"/>
<polygon fill="black" stroke="black" points="345.83,-179.28 353.73,-172.22 343.16,-172.82 345.83,-179.28"/>
</g>
<!-- xm -->
<g id="node36" class="node">
<title>xm</title>
<ellipse fill="none" stroke="black" cx="1402" cy="-18" rx="27" ry="18"/>
<text text-anchor="middle" x="1402" y="-14.3" font-family="Times,serif" font-size="14.00">xm</text>
</g>
<!-- xm&#45;&gt;jh -->
<g id="edge27" class="edge">
<title>xm&#45;&gt;jh</title>
<path fill="none" stroke="black" d="M1423.21,-29.38C1460.52,-49.31 1534,-96.71 1534,-161 1534,-595 1534,-595 1534,-595 1534,-635.45 1542.98,-654.8 1515,-684 1492.05,-707.95 1399.58,-724.47 1347.01,-732.14"/>
<polygon fill="black" stroke="black" points="1346.47,-728.68 1337.06,-733.55 1347.46,-735.61 1346.47,-728.68"/>
</g>
<!-- nd&#45;&gt;zq -->
<g id="edge98" class="edge">
<title>nd&#45;&gt;zq</title>
<path fill="none" stroke="black" d="M1765.39,-828.19C1770.19,-852.53 1779.01,-897.28 1784.69,-926.06"/>
<polygon fill="black" stroke="black" points="1781.25,-926.74 1786.62,-935.87 1788.12,-925.38 1781.25,-926.74"/>
</g>
<!-- nd&#45;&gt;pl -->
<g id="edge99" class="edge">
<title>nd&#45;&gt;pl</title>
<path fill="none" stroke="black" d="M1770.81,-792.76C1775.42,-784.28 1781.16,-773.71 1786.32,-764.2"/>
<polygon fill="black" stroke="black" points="1789.54,-765.61 1791.23,-755.15 1783.39,-762.27 1789.54,-765.61"/>
</g>
<!-- vq&#45;&gt;dc -->
<g id="edge30" class="edge">
<title>vq&#45;&gt;dc</title>
<path fill="none" stroke="black" d="M411.44,-894.54C387.52,-906.62 346.93,-925.62 317.29,-938.66"/>
<polygon fill="black" stroke="black" points="315.86,-935.47 308.09,-942.67 318.65,-941.89 315.86,-935.47"/>
</g>
<!-- bh -->
<g id="node39" class="node">
<title>bh</title>
<ellipse fill="none" stroke="black" cx="245" cy="-810" rx="27" ry="18"/>
<text text-anchor="middle" x="245" y="-806.3" font-family="Times,serif" font-size="14.00">bh</text>
</g>
<!-- vq&#45;&gt;bh -->
<g id="edge31" class="edge">
<title>vq&#45;&gt;bh</title>
<path fill="none" stroke="black" d="M407.82,-872.28C374.92,-859.9 314.56,-837.18 277.29,-823.15"/>
<polygon fill="black" stroke="black" points="278.48,-819.86 267.89,-819.61 276.02,-826.41 278.48,-819.86"/>
</g>
<!-- bh&#45;&gt;dc -->
<g id="edge104" class="edge">
<title>bh&#45;&gt;dc</title>
<path fill="none" stroke="black" d="M249.36,-828.19C255.53,-852.53 266.87,-897.28 274.17,-926.06"/>
<polygon fill="black" stroke="black" points="270.81,-927.04 276.66,-935.87 277.59,-925.32 270.81,-927.04"/>
</g>
<!-- bh&#45;&gt;ct -->
<g id="edge105" class="edge">
<title>bh&#45;&gt;ct</title>
<path fill="none" stroke="black" d="M236.19,-792.76C231.58,-784.28 225.84,-773.71 220.68,-764.2"/>
<polygon fill="black" stroke="black" points="223.61,-762.27 215.77,-755.15 217.46,-765.61 223.61,-762.27"/>
</g>
<!-- ct&#45;&gt;fx -->
<g id="edge66" class="edge">
<title>ct&#45;&gt;fx</title>
<path fill="none" stroke="black" d="M198.19,-720.76C193.58,-712.28 187.84,-701.71 182.68,-692.2"/>
<polygon fill="black" stroke="black" points="185.61,-690.27 177.77,-683.15 179.46,-693.61 185.61,-690.27"/>
</g>
<!-- mr -->
<g id="node57" class="node">
<title>mr</title>
<ellipse fill="none" stroke="black" cx="121" cy="-450" rx="27" ry="18"/>
<text text-anchor="middle" x="121" y="-446.3" font-family="Times,serif" font-size="14.00">mr</text>
</g>
<!-- df&#45;&gt;mr -->
<g id="edge80" class="edge">
<title>df&#45;&gt;mr</title>
<path fill="none" stroke="black" d="M143.13,-504.41C139.73,-496.22 135.56,-486.14 131.75,-476.95"/>
<polygon fill="black" stroke="black" points="134.88,-475.37 127.82,-467.47 128.42,-478.05 134.88,-475.37"/>
</g>
<!-- hq -->
<g id="node58" class="node">
<title>hq</title>
<ellipse fill="none" stroke="black" cx="150" cy="-594" rx="27" ry="18"/>
<text text-anchor="middle" x="150" y="-590.3" font-family="Times,serif" font-size="14.00">hq</text>
</g>
<!-- fx&#45;&gt;hq -->
<g id="edge88" class="edge">
<title>fx&#45;&gt;hq</title>
<path fill="none" stroke="black" d="M164.4,-648.05C162.25,-640.14 159.65,-630.54 157.24,-621.69"/>
<polygon fill="black" stroke="black" points="160.55,-620.52 154.56,-611.79 153.8,-622.36 160.55,-620.52"/>
</g>
<!-- dj -->
<g id="node43" class="node">
<title>dj</title>
<ellipse fill="none" stroke="black" cx="1867" cy="-378" rx="27" ry="18"/>
<text text-anchor="middle" x="1867" y="-374.3" font-family="Times,serif" font-size="14.00">dj</text>
</g>
<!-- dj&#45;&gt;zq -->
<g id="edge39" class="edge">
<title>dj&#45;&gt;zq</title>
<path fill="none" stroke="black" d="M1843.73,-387.14C1799.36,-404.32 1707,-448.76 1707,-521 1707,-739 1707,-739 1707,-739 1707,-811.12 1748.49,-888.23 1772.8,-927.22"/>
<polygon fill="black" stroke="black" points="1769.96,-929.29 1778.28,-935.85 1775.87,-925.53 1769.96,-929.29"/>
</g>
<!-- dj&#45;&gt;pp -->
<g id="edge40" class="edge">
<title>dj&#45;&gt;pp</title>
<path fill="none" stroke="black" d="M1867,-359.7C1867,-351.98 1867,-342.71 1867,-334.11"/>
<polygon fill="black" stroke="black" points="1870.5,-334.1 1867,-324.1 1863.5,-334.1 1870.5,-334.1"/>
</g>
<!-- fv&#45;&gt;zq -->
<g id="edge41" class="edge">
<title>fv&#45;&gt;zq</title>
<path fill="none" stroke="black" d="M1817.7,-165.38C1882.92,-172.82 2045,-201.69 2045,-305 2045,-811 2045,-811 2045,-811 2045,-909.32 1898.5,-940.18 1827.58,-949.35"/>
<polygon fill="black" stroke="black" points="1826.8,-945.92 1817.29,-950.6 1827.64,-952.87 1826.8,-945.92"/>
</g>
<!-- vj -->
<g id="node45" class="node">
<title>vj</title>
<ellipse fill="none" stroke="black" cx="1741" cy="-90" rx="27" ry="18"/>
<text text-anchor="middle" x="1741" y="-86.3" font-family="Times,serif" font-size="14.00">vj</text>
</g>
<!-- fv&#45;&gt;vj -->
<g id="edge42" class="edge">
<title>fv&#45;&gt;vj</title>
<path fill="none" stroke="black" d="M1779.9,-145.46C1773.49,-136.49 1765.3,-125.02 1758.08,-114.92"/>
<polygon fill="black" stroke="black" points="1760.73,-112.59 1752.07,-106.49 1755.03,-116.66 1760.73,-112.59"/>
</g>
<!-- vj&#45;&gt;zq -->
<g id="edge58" class="edge">
<title>vj&#45;&gt;zq</title>
<path fill="none" stroke="black" d="M1717.14,-98.49C1670.56,-114.77 1572,-158.08 1572,-233 1572,-811 1572,-811 1572,-811 1572,-851.45 1563.12,-870.69 1591,-900 1613.07,-923.21 1701.72,-939.89 1752.94,-947.81"/>
<polygon fill="black" stroke="black" points="1752.55,-951.29 1762.96,-949.33 1753.6,-944.37 1752.55,-951.29"/>
</g>
<!-- pv&#45;&gt;qm -->
<g id="edge43" class="edge">
<title>pv&#45;&gt;qm</title>
<path fill="none" stroke="black" d="M866.93,-242.7C913.1,-259.24 1010,-302.79 1010,-377 1010,-667 1010,-667 1010,-667 1010,-709.34 1007.57,-727.78 976,-756 929.19,-797.85 853.58,-807.45 808.45,-809.2"/>
<polygon fill="black" stroke="black" points="808.11,-805.71 798.21,-809.48 808.3,-812.71 808.11,-805.71"/>
</g>
<!-- pv&#45;&gt;lm -->
<g id="edge44" class="edge">
<title>pv&#45;&gt;lm</title>
<path fill="none" stroke="black" d="M818.81,-225.51C778.37,-212.98 696.94,-187.76 650.83,-173.48"/>
<polygon fill="black" stroke="black" points="651.6,-170.05 641.01,-170.44 649.53,-176.74 651.6,-170.05"/>
</g>
<!-- dg&#45;&gt;jh -->
<g id="edge45" class="edge">
<title>dg&#45;&gt;jh</title>
<path fill="none" stroke="black" d="M1326.13,-394.05C1356.53,-430.81 1427.23,-528.23 1401,-612 1388.6,-651.59 1358.01,-688.93 1335.71,-712.31"/>
<polygon fill="black" stroke="black" points="1332.99,-710.09 1328.51,-719.69 1338,-714.98 1332.99,-710.09"/>
</g>
<!-- dg&#45;&gt;zz -->
<g id="edge46" class="edge">
<title>dg&#45;&gt;zz</title>
<path fill="none" stroke="black" d="M1306.36,-360.41C1303.09,-352.22 1299.06,-342.14 1295.38,-332.95"/>
<polygon fill="black" stroke="black" points="1298.55,-331.45 1291.59,-323.47 1292.05,-334.05 1298.55,-331.45"/>
</g>
<!-- zm -->
<g id="node55" class="node">
<title>zm</title>
<ellipse fill="none" stroke="black" cx="1285" cy="-234" rx="27" ry="18"/>
<text text-anchor="middle" x="1285" y="-230.3" font-family="Times,serif" font-size="14.00">zm</text>
</g>
<!-- zz&#45;&gt;zm -->
<g id="edge74" class="edge">
<title>zz&#45;&gt;zm</title>
<path fill="none" stroke="black" d="M1285,-287.7C1285,-279.98 1285,-270.71 1285,-262.11"/>
<polygon fill="black" stroke="black" points="1288.5,-262.1 1285,-252.1 1281.5,-262.1 1288.5,-262.1"/>
</g>
<!-- fc&#45;&gt;fk -->
<g id="edge47" class="edge">
<title>fc&#45;&gt;fk</title>
<path fill="none" stroke="black" d="M1356.19,-576.76C1351.58,-568.28 1345.84,-557.71 1340.68,-548.2"/>
<polygon fill="black" stroke="black" points="1343.61,-546.27 1335.77,-539.15 1337.46,-549.61 1343.61,-546.27"/>
</g>
<!-- vl&#45;&gt;fc -->
<g id="edge52" class="edge">
<title>vl&#45;&gt;fc</title>
<path fill="none" stroke="black" d="M1459.66,-653.13C1441.4,-641.91 1413.81,-624.97 1393.11,-612.26"/>
<polygon fill="black" stroke="black" points="1394.79,-609.18 1384.43,-606.93 1391.12,-615.15 1394.79,-609.18"/>
</g>
<!-- xr -->
<g id="node51" class="node">
<title>xr</title>
<ellipse fill="none" stroke="black" cx="1270" cy="-162" rx="27" ry="18"/>
<text text-anchor="middle" x="1270" y="-158.3" font-family="Times,serif" font-size="14.00">xr</text>
</g>
<!-- xr&#45;&gt;jh -->
<g id="edge61" class="edge">
<title>xr&#45;&gt;jh</title>
<path fill="none" stroke="black" d="M1256.08,-177.84C1234.65,-202.32 1196,-253.57 1196,-305 1196,-595 1196,-595 1196,-595 1196,-646 1241.27,-689.12 1274.76,-714.03"/>
<polygon fill="black" stroke="black" points="1272.83,-716.95 1282.98,-719.96 1276.92,-711.27 1272.83,-716.95"/>
</g>
<!-- kr -->
<g id="node52" class="node">
<title>kr</title>
<ellipse fill="none" stroke="black" cx="1270" cy="-90" rx="27" ry="18"/>
<text text-anchor="middle" x="1270" y="-86.3" font-family="Times,serif" font-size="14.00">kr</text>
</g>
<!-- xr&#45;&gt;kr -->
<g id="edge62" class="edge">
<title>xr&#45;&gt;kr</title>
<path fill="none" stroke="black" d="M1270,-143.7C1270,-135.98 1270,-126.71 1270,-118.11"/>
<polygon fill="black" stroke="black" points="1273.5,-118.1 1270,-108.1 1266.5,-118.1 1273.5,-118.1"/>
</g>
<!-- kr&#45;&gt;jh -->
<g id="edge106" class="edge">
<title>kr&#45;&gt;jh</title>
<path fill="none" stroke="black" d="M1251,-102.89C1219.05,-124.54 1158,-173.66 1158,-233 1158,-595 1158,-595 1158,-595 1158,-640.37 1175.4,-652.45 1208,-684 1226.44,-701.85 1252.11,-715.15 1273.07,-723.95"/>
<polygon fill="black" stroke="black" points="1272.05,-727.31 1282.64,-727.8 1274.67,-720.82 1272.05,-727.31"/>
</g>
<!-- kr&#45;&gt;xm -->
<g id="edge107" class="edge">
<title>kr&#45;&gt;xm</title>
<path fill="none" stroke="black" d="M1290.62,-78.06C1312.61,-66.4 1347.63,-47.83 1372.52,-34.63"/>
<polygon fill="black" stroke="black" points="1374.32,-37.64 1381.52,-29.86 1371.05,-31.45 1374.32,-37.64"/>
</g>
<!-- ms&#45;&gt;qm -->
<g id="edge65" class="edge">
<title>ms&#45;&gt;qm</title>
<path fill="none" stroke="black" d="M546.47,-35.84C538.31,-62.21 524,-115.02 524,-161 524,-667 524,-667 524,-667 524,-711.73 535.99,-728.15 571,-756 618.39,-793.7 690.11,-804.73 733.55,-807.87"/>
<polygon fill="black" stroke="black" points="733.5,-811.37 743.69,-808.49 733.93,-804.39 733.5,-811.37"/>
</g>
<!-- rt&#45;&gt;zq -->
<g id="edge71" class="edge">
<title>rt&#45;&gt;zq</title>
<path fill="none" stroke="black" d="M1908.92,-465.84C1930.35,-490.32 1969,-541.57 1969,-593 1969,-811 1969,-811 1969,-811 1969,-882.92 1879.21,-924.2 1826.82,-942.16"/>
<polygon fill="black" stroke="black" points="1825.58,-938.88 1817.19,-945.34 1827.78,-945.53 1825.58,-938.88"/>
</g>
<!-- rt&#45;&gt;dj -->
<g id="edge72" class="edge">
<title>rt&#45;&gt;dj</title>
<path fill="none" stroke="black" d="M1888.36,-432.41C1885.09,-424.22 1881.06,-414.14 1877.38,-404.95"/>
<polygon fill="black" stroke="black" points="1880.55,-403.45 1873.59,-395.47 1874.05,-406.05 1880.55,-403.45"/>
</g>
<!-- zm&#45;&gt;jh -->
<g id="edge108" class="edge">
<title>zm&#45;&gt;jh</title>
<path fill="none" stroke="black" d="M1309.05,-242.19C1356.59,-258.06 1458,-300.84 1458,-377 1458,-523 1458,-523 1458,-523 1458,-601.38 1435.97,-623.6 1386,-684 1374.98,-697.32 1359.82,-708.79 1345.94,-717.63"/>
<polygon fill="black" stroke="black" points="1343.77,-714.85 1337.06,-723.04 1347.42,-720.83 1343.77,-714.85"/>
</g>
<!-- zm&#45;&gt;xr -->
<g id="edge109" class="edge">
<title>zm&#45;&gt;xr</title>
<path fill="none" stroke="black" d="M1281.37,-216.05C1279.7,-208.26 1277.68,-198.82 1275.8,-190.08"/>
<polygon fill="black" stroke="black" points="1279.22,-189.32 1273.7,-180.28 1272.37,-190.79 1279.22,-189.32"/>
</g>
<!-- kf -->
<g id="node56" class="node">
<title>kf</title>
<ellipse fill="none" stroke="black" cx="121" cy="-378" rx="27" ry="18"/>
<text text-anchor="middle" x="121" y="-374.3" font-family="Times,serif" font-size="14.00">kf</text>
</g>
<!-- kf&#45;&gt;dc -->
<g id="edge75" class="edge">
<title>kf&#45;&gt;dc</title>
<path fill="none" stroke="black" d="M105.78,-393.13C81.82,-416.99 38,-467.89 38,-521 38,-811 38,-811 38,-811 38,-856.59 52.98,-872.05 89,-900 134.59,-935.37 202.32,-947.15 243.96,-951.06"/>
<polygon fill="black" stroke="black" points="243.69,-954.55 253.95,-951.9 244.28,-947.58 243.69,-954.55"/>
</g>
<!-- kf&#45;&gt;kl -->
<g id="edge76" class="edge">
<title>kf&#45;&gt;kl</title>
<path fill="none" stroke="black" d="M137.58,-363.5C150.31,-353.14 168.09,-338.67 182.46,-326.97"/>
<polygon fill="black" stroke="black" points="184.92,-329.48 190.47,-320.46 180.5,-324.05 184.92,-329.48"/>
</g>
<!-- mr&#45;&gt;dc -->
<g id="edge101" class="edge">
<title>mr&#45;&gt;dc</title>
<path fill="none" stroke="black" d="M112.32,-467.09C99.25,-492.88 76,-545.42 76,-593 76,-811 76,-811 76,-811 76,-857.5 94.8,-870.82 131,-900 163.99,-926.59 211.3,-940.34 243.93,-947.1"/>
<polygon fill="black" stroke="black" points="243.48,-950.58 253.97,-949.05 244.82,-943.71 243.48,-950.58"/>
</g>
<!-- mr&#45;&gt;kf -->
<g id="edge102" class="edge">
<title>mr&#45;&gt;kf</title>
<path fill="none" stroke="black" d="M121,-431.7C121,-423.98 121,-414.71 121,-406.11"/>
<polygon fill="black" stroke="black" points="124.5,-406.1 121,-396.1 117.5,-406.1 124.5,-406.1"/>
</g>
<!-- hq&#45;&gt;dc -->
<g id="edge89" class="edge">
<title>hq&#45;&gt;dc</title>
<path fill="none" stroke="black" d="M142.89,-611.7C132.4,-637.89 114,-690.46 114,-737 114,-811 114,-811 114,-811 114,-878.97 195.28,-921.21 244.43,-940.55"/>
<polygon fill="black" stroke="black" points="243.21,-943.83 253.8,-944.11 245.69,-937.28 243.21,-943.83"/>
</g>
<!-- hq&#45;&gt;df -->
<g id="edge90" class="edge">
<title>hq&#45;&gt;df</title>
<path fill="none" stroke="black" d="M150,-575.7C150,-567.98 150,-558.71 150,-550.11"/>
<polygon fill="black" stroke="black" points="153.5,-550.1 150,-540.1 146.5,-550.1 153.5,-550.1"/>
</g>
<!-- broadcaster -->
<g id="node59" class="node">
<title>broadcaster</title>
<ellipse fill="none" stroke="black" cx="1031" cy="-954" rx="66.09" ry="18"/>
<text text-anchor="middle" x="1031" y="-950.3" font-family="Times,serif" font-size="14.00">broadcaster</text>
</g>
<!-- broadcaster&#45;&gt;ss -->
<g id="edge94" class="edge">
<title>broadcaster&#45;&gt;ss</title>
<path fill="none" stroke="black" d="M1090.6,-946C1213.2,-931.6 1490.5,-899.03 1590.32,-887.31"/>
<polygon fill="black" stroke="black" points="1590.99,-890.75 1600.51,-886.11 1590.17,-883.8 1590.99,-890.75"/>
</g>
<!-- broadcaster&#45;&gt;qg -->
<g id="edge95" class="edge">
<title>broadcaster&#45;&gt;qg</title>
<path fill="none" stroke="black" d="M1078.01,-941.2C1133.69,-927.24 1225.13,-904.29 1274.96,-891.79"/>
<polygon fill="black" stroke="black" points="1276.09,-895.12 1284.93,-889.29 1274.38,-888.33 1276.09,-895.12"/>
</g>
<!-- broadcaster&#45;&gt;kb -->
<g id="edge96" class="edge">
<title>broadcaster&#45;&gt;kb</title>
<path fill="none" stroke="black" d="M990.24,-939.67C949.61,-926.38 887.97,-906.21 850.21,-893.86"/>
<polygon fill="black" stroke="black" points="851.29,-890.53 840.7,-890.75 849.11,-897.19 851.29,-890.53"/>
</g>
<!-- broadcaster&#45;&gt;vq -->
<g id="edge97" class="edge">
<title>broadcaster&#45;&gt;vq</title>
<path fill="none" stroke="black" d="M971.28,-946.03C847.87,-931.63 567.93,-898.97 467.62,-887.27"/>
<polygon fill="black" stroke="black" points="467.72,-883.76 457.38,-886.08 466.91,-890.71 467.72,-883.76"/>
</g>
</g>
</svg>
